# xmcd CD database file
#
# Track frame offsets:
#	150
#	33937
#	46195
#	61845
#	84885
#	106730
#	121305
#	142580
#	162202
#
# Disc length: 2336 seconds
#
# Revision: 0
# Processed by: cddbd v1.5PL3 Copyright (c) Steve Scherf et al.
# Submitted via: CDex 1.50beta9
#
DISCID=5c091e09
DTITLE=どんと - 一頭象 Disc1
DYEAR=2000
DGENRE=Rock
TTITLE0=ムスティカ
TTITLE1=インディア(INDIA)
TTITLE2=よいよい
TTITLE3=スラマティンガー（さようなら）
TTITLE4=シビーシビー
TTITLE5=さいあいあい
TTITLE6=ひなたぼっこ
TTITLE7=花
TTITLE8=また逢う日まで
EXTD=YEAR: 2000
EXTT0=
EXTT1=
EXTT2=
EXTT3=
EXTT4=
EXTT5=
EXTT6=
EXTT7=
EXTT8=
PLAYORDER=
